<svg version="1.1" xmlns="http://www.w3.org/2000/svg" xmlns:xlink="http://www.w3.org/1999/xlink" width="65.25629" height="63.36821" viewBox="0,0,65.25629,63.36821"><g transform="translate(-207.41466,-149.00679)"><g data-paper-data="{&quot;isPaintingLayer&quot;:true}" fill="none" fill-rule="nonzero" stroke="none" stroke-width="none" stroke-linecap="butt" stroke-linejoin="miter" stroke-miterlimit="10" stroke-dasharray="" stroke-dashoffset="0" font-family="none" font-weight="none" font-size="none" text-anchor="none" style="mix-blend-mode: normal"><g id="Apple" stroke-width="1"><path d="M268.083,183.402c0,14.527 -12.525,26.307 -27.978,26.307c-15.453,0 -27.977,-11.775 -27.977,-26.307c0,-14.527 12.523,-21.275 27.977,-21.275c15.452,-0.001 27.978,6.749 27.978,21.275z" id="Fill_1_" fill="#ec1c2c"/><g id="Outline_1_" fill="#231f20"><path d="M271.216,183.121c0,16.156 -13.927,29.254 -31.109,29.254c-17.179,0 -31.107,-13.098 -31.107,-29.254c0,-14.238 10.821,-20.648 25.149,-21.972c0,0 4.528,-0.58 9.136,-0.189c15.684,0.73 27.931,7.017 27.931,22.161zM266.47,183.55c0,-12.602 -10.007,-18.984 -22.949,-19.92c0,0 -8.207,0.115 -8.456,0.144c-12.145,1.341 -21.314,7.71 -21.314,19.774c0,13.686 11.798,24.785 26.357,24.785c14.558,0 26.356,-11.097 26.362,-24.783z" id="Outline_2_"/><path d="M249.06,170.065c-3.568,0.181 -6.986,0.271 -10.561,0.672c-2.387,0.268 -4.687,0.289 -6.455,-1.514c-0.384,-0.395 0.118,-1.076 0.598,-0.773c1.182,0.741 2.373,1.041 3.571,1.099c0.078,0.064 4.274,-0.49 6.19,-1.098c2.312,-0.63 4.626,-1.15 6.929,-0.389c1.101,0.364 0.888,1.942 -0.272,2.003z" id="Line"/></g><path d="M221.555,183.261c0,3.431 1.85,6.212 -0.084,6.212c-1.934,0 -3.5,-2.781 -3.5,-6.212c0,-3.43 1.566,-6.211 3.5,-6.211c1.934,0 0.084,2.782 0.084,6.211z" id="Shine" fill="#ffffff"/></g><g id="Stem" stroke-width="1"><path d="M233.116,153.686c1.021,-0.61 2.039,-1.222 3.059,-1.833c0.734,1.128 1.472,2.229 2.064,3.482c2.162,4.564 1.686,9.385 1.624,14.212c-0.375,0.089 -0.977,0.153 -1.348,0.219c0.258,-6.148 -1.205,-11.784 -5.399,-16.08z" id="Fill" fill="#99661d"/><path d="M242.297,167.438c0,0 -0.23,1.876 -0.251,2.23c0,0 -3.771,1.124 -5.25,0.562l-0.046,-1.609c0.03,-3.215 -0.97,-6.668 -1.562,-7.749c-0.283,-0.516 -1.423,-3.466 -4.9,-6.557c-0.596,-0.527 -0.395,-1.515 0.242,-1.898c1.807,-1.084 3.609,-2.168 5.414,-3.252c0.58,-0.347 1.265,-0.088 1.658,0.435c5.528,7.358 4.864,17.077 4.695,17.838zM239.761,168.152c0.112,-4.442 0.49,-8.57 -1.522,-12.817c-0.592,-1.253 -1.33,-2.354 -2.064,-3.482c-1.02,0.611 -2.038,1.223 -3.059,1.833c3.962,4.058 5.58,8.969 5.53,14.683v1.152l1.109,-0.141z" id="Outline" fill="#231f20"/></g><path d="M237.04783,177.54019c0.07138,-0.03584 0.14318,-0.07077 0.21538,-0.10479c0.23154,-0.59383 0.48434,-1.18178 0.75963,-1.76302c0.28709,-0.60615 0.54168,-1.23585 0.90091,-1.80107c0.07297,-1.03446 -0.02168,-2.00718 -0.36825,-2.99374c-0.11298,-0.32162 -0.17493,-0.66277 -0.27432,-0.98878c-0.93704,1.47426 -0.91006,3.53234 -1.07782,5.24974c-0.0797,0.81589 -0.13146,1.61471 -0.15554,2.40167zM253.59786,186.75672c-1.08759,2.80488 -2.47681,5.48308 -3.88454,7.86204c0.13652,0.51672 0.30796,1.03446 0.52424,1.55609c0.0986,0.2378 -0.15268,-0.49169 -0.22902,-0.73754c0.27016,0.06911 0.63099,0.42073 0.81049,0.20732c0.16961,-0.20164 -0.51014,-0.41866 -0.42345,-0.66748c0.33425,-0.95931 2.3162,-2.48275 2.94254,-3.40022c0.25875,-0.37902 0.5171,-0.75839 0.7752,-1.138c-0.08693,-0.50328 -0.12165,-1.0732 -0.17502,-1.73697c-0.04972,-0.69611 -0.16579,-1.34334 -0.34046,-1.94524zM256.08019,193.01962c-0.41803,0.56545 -0.84292,1.12552 -1.27638,1.6789c-1.24088,1.58418 -3.45398,4.17847 -5.53871,3.64521c-0.50727,-0.31593 -0.92727,-0.65118 -1.27561,-1.00672c-0.9366,1.22872 -2.08683,2.17181 -3.91895,2.43999c-0.31357,0.92695 -0.65815,1.83531 -1.03403,2.72012c-0.98389,2.31606 -2.64288,3.932 -5.32144,4.20224c-0.07943,0.00801 -0.16522,-0.04924 -0.25404,-0.1538c-0.73816,0.37454 -1.51521,0.62694 -2.32473,0.71235c-1.66967,0.17615 -3.71015,0.62899 -5.36427,0.28982c-0.92909,-0.19051 -1.75572,-0.51014 -2.49851,-0.93064c-0.21916,0.18349 -0.45533,0.36224 -0.70666,0.54001l-0.73581,0.40879c0,0 0.73303,0.0932 -0.36695,0.16965l-0.30462,0.39835c-0.27358,0.36539 -0.70992,0.60185 -1.2015,0.60185c-0.26226,0 -0.5088,-0.0673 -0.72329,-0.18558c-0.08376,0.01451 -0.1699,0.02207 -0.2578,0.02207c-0.67206,0 -1.24089,-0.44198 -1.43168,-1.05113l-0.12223,0.28114c-0.22351,0.5476 -0.76136,0.93351 -1.38934,0.93351c-0.82843,0 -1.5,-0.67157 -1.5,-1.5c0,-0.10184 0.01015,-0.2013 0.02949,-0.29744l0.24342,-1.3388c-0.41692,-0.23545 -0.70993,-0.66462 -0.75684,-1.16531c-0.11126,-0.11604 -0.1985,-0.20829 -0.25403,-0.2663c-0.6893,-0.7199 -1.37771,-1.4624 -2.03731,-2.23081c-0.22932,-0.15568 -0.41325,-0.37322 -0.52783,-0.62863c-0.54741,-0.66735 -1.06838,-1.35418 -1.5456,-2.06255c-0.7651,-0.06833 -1.36484,-0.71112 -1.36484,-1.49399l0,-0.7001c-0.19663,-0.24634 -0.31728,-0.556 -0.32646,-0.89348c-0.41993,-1.00733 -0.72445,-2.05616 -0.87512,-3.15105c-0.45419,-0.25782 -0.76059,-0.74582 -0.76059,-1.3054c0,-0.10184 0.01015,-0.2013 0.02949,-0.29744l0.15822,-0.87021c-0.2915,-0.26139 -0.23164,-0.64241 -0.07512,-1.05612c-0.02076,-0.01138 -0.04137,-0.01808 -0.06165,-0.01978c-0.27825,-0.02335 -0.6925,-0.32913 -1.08895,-0.72671c-0.12891,0.03609 -0.26483,0.05538 -0.40526,0.05538c-0.82843,0 -1.5,-0.67157 -1.5,-1.5c0,-0.16208 0.02571,-0.31815 0.07326,-0.46436l0.2163,-0.72111c0.14255,-0.47523 0.28359,-0.95019 0.42478,-1.42449c0.00756,-0.02887 0.01618,-0.05772 0.02577,-0.08657c0.94341,-3.16809 1.89806,-6.30568 3.35836,-9.29608c0.00072,-0.00148 0.21521,-0.52327 0.51905,-1.10017c0.19686,-0.42732 0.38817,-0.85388 0.5587,-1.28127c0.10509,-0.26273 1.17698,-2.97095 1.66434,-2.87739c0.14552,0.02794 0.28804,0.0561 0.4273,0.08513c0.06716,-0.15833 0.13323,-0.31755 0.19756,-0.47803c0.31855,-0.79467 0.23964,-1.99105 1.01186,-2.3607l0.47638,-1.03215c0.23099,-0.53089 0.76019,-0.9021 1.3761,-0.9021c0.44641,0 0.84727,0.19501 1.12205,0.50448c0.18874,-0.22795 0.48294,-0.41686 0.93907,-0.48704c1.48256,-0.22809 1.71064,1.25447 1.71064,1.25447c0.00564,0.03666 0.01127,0.0733 0.0169,0.10994c0.00352,0.0044 0.00701,0.00883 0.01049,0.01327c0.03365,-0.02705 0.06868,-0.05402 0.10498,-0.0809c-0.03587,-0.12153 -0.072,-0.24296 -0.1084,-0.36429c0,0 -0.43102,-1.43674 1.00572,-1.86776c1.11905,-0.33571 1.62797,0.46166 1.79833,0.8307c0.14642,-0.0712 0.27882,-0.1387 0.39151,-0.20204c2.24385,-1.26125 5.01436,-3.44696 7.593,-3.8328c1.13204,-0.16939 3.26712,0.71354 4.39637,0.96016c2.94112,0.8579 5.07757,2.34821 6.59824,4.25564c1.02865,-1.21391 2.31937,-1.89784 4.50786,-1.47233c0.18111,0.03521 0.33672,0.10814 0.47175,0.21051c0.46896,-1.08108 1.04129,-2.04106 1.69941,-2.33089l0.81915,-1.22872c0.26708,-0.41355 0.73206,-0.68731 1.26098,-0.68731c0.74583,0 1.36453,0.54434 1.48048,1.2574l0.32235,1.77293l-0.05842,0.01062c0.03186,0.39305 0.04091,0.78717 0.0056,1.17831c-0.16738,1.85382 -0.40282,3.68675 -0.70468,5.50108c1.23072,0.58042 2.20322,2.1994 2.47354,3.92859c0.29509,2.50307 0.03623,5.09879 -0.57817,7.66624c0.03596,0.03974 0.07165,0.07962 0.10706,0.11963c0.75585,0.85404 1.27249,2.70833 1.55671,4.27951c2.10763,-3.10018 4.23365,-6.18882 6.4628,-9.19893l-0.00234,-0.00176l0.57163,-0.76217c0,0 0,0 0,0l0.56116,-0.74821c0.27295,-0.37227 0.71349,-0.61397 1.21047,-0.61397c0.64386,0 1.19297,0.40566 1.40569,0.97534c0.14603,-0.22747 0.29323,-0.45353 0.44193,-0.67784c0.51967,-0.78389 0.77984,-2.04813 1.6976,-2.25367l0.73132,-0.81257c0.2747,-0.30778 0.67444,-0.50155 1.11944,-0.50155c0.74276,0 1.35943,0.53986 1.47902,1.2486l0.3053,1.62057l-0.1076,0.02027c0.01543,1.55646 -0.36316,3.02971 -0.8826,4.54286c-2.38978,6.96155 -5.215,13.66479 -8.26048,20.36485c-0.93936,2.0666 -1.92306,3.63671 -3.36407,5.37793c-0.31878,0.3852 -0.47101,1.03542 -0.95635,1.15559l-0.94878,1.14645c-0.27505,0.33735 -0.69395,0.55279 -1.16316,0.55279c-0.82843,0 -1.5,-0.67157 -1.5,-1.5c0,-0.08684 0.00738,-0.17196 0.02155,-0.25477l0.39167,-2.54584l0.00425,0.00065c0.62285,-3.87456 1.35858,-7.65138 2.33498,-11.38583c-0.14645,0.12102 -0.29685,0.23962 -0.45194,0.35556c-0.29689,0.22194 -0.55835,0.79943 -0.89933,0.65406c-0.30118,-0.1284 -0.56953,-0.25655 -0.80887,-0.38589zM268.63315,179.11817c-1.85869,2.84385 -3.64394,5.60241 -5.74096,8.22436c-1.54944,4.50472 -2.62245,9.02501 -3.47018,13.67199c0.45451,-0.73247 0.85492,-1.50008 1.26716,-2.40701c2.91706,-6.41752 5.63056,-12.83616 7.94399,-19.48933zM249.147,189.46962c0.96365,-1.86545 1.89959,-3.92067 2.5941,-5.99567c-0.4436,-0.48134 -0.94139,-0.91394 -1.48198,-1.30297c-0.36377,1.09211 -0.75217,2.17884 -1.1648,3.26074c-0.02467,0.7988 -0.02,1.59484 0.00716,2.38077c0.01945,0.56272 0.03127,1.11413 0.04552,1.65712zM252.45185,174.18464c-0.36021,1.66306 -0.77676,3.31135 -1.24832,4.94668c0.49211,0.29943 0.968,0.61941 1.42374,0.9577c0.31853,-1.77294 0.36824,-3.49113 0.01006,-5.04395c-0.04418,-0.28264 -0.09814,-0.57908 -0.18548,-0.86043zM245.12276,196.96537c-0.04886,0.10006 -0.09793,0.19979 -0.14718,0.29918c0.15791,0.07104 0.30017,0.09592 0.41623,0.05614c0.1811,-0.06207 -0.03068,-0.19317 -0.26905,-0.35532zM241.55478,179.28665c-0.03,0.00256 -0.06014,0.00534 -0.09042,0.00833c-0.02641,0.09215 -0.05405,0.17982 -0.08331,0.26176c-0.54474,1.52527 -0.745,3.09499 -0.74267,4.6726l0.14014,-0.17518c0.29635,-1.21112 0.78633,-3.32129 0.77626,-4.76751zM233.90399,202.16678c0,-0.19458 0.03705,-0.3805 0.10448,-0.5511l0.50657,-1.37497c-0.16131,-0.35597 0.18586,-1.31931 0.65553,-2.36079c0.00899,-0.0325 0.018,-0.06498 0.02705,-0.09744c-0.08354,-0.72055 -0.14733,-1.44035 -0.19125,-2.1595c-1.51901,1.80347 -3.01907,3.6242 -4.46324,5.49591c-0.49658,0.64359 -0.99259,1.28762 -1.48818,1.932c-0.00415,0.37617 -0.04359,0.72075 -0.11543,1.03961c0.65812,0.37119 1.41315,0.65738 2.29598,0.8384c0.42674,0.0875 1.89683,-0.3037 2.87982,-0.52238c-0.1342,-0.22467 -0.21132,-0.48738 -0.21132,-0.76811c0,-0.10835 0.01149,-0.21402 0.03331,-0.31586l0.10294,-0.53025c-0.08748,-0.1904 -0.13625,-0.40227 -0.13625,-0.62553zM226.92962,174.04231v0.98109c0.12996,0.10833 0.13895,0.56602 0.09916,1.1068c0.40219,1.93021 0.78646,3.86491 1.17983,5.79366c0.08411,0.42057 0.16111,0.84211 0.23156,1.26454c0.71885,0.11101 1.2692,0.73241 1.2692,1.48235c0,0.25194 -0.06211,0.48937 -0.17185,0.69781l-0.65468,1.30937c0.0006,0.00664 0.0012,0.01328 0.0018,0.01992c0.04025,0.13617 0.04938,0.27037 0.03491,0.4032c0.30227,3.64533 0.25071,7.33482 0.19063,11.01236c1.92153,-2.39434 3.90625,-4.73038 5.8868,-7.07025c0.02602,-0.4531 0.06009,-0.90601 0.10223,-1.35878c0.00595,-0.67274 0.02657,-1.34504 0.06335,-2.01591c-0.21238,0.1027 -0.42913,0.19533 -0.65054,0.2757c-0.26374,0.09574 -0.51853,-0.23127 -0.73581,-0.40879c-1.82211,-1.48861 -2.08771,-2.68679 -1.33858,-4.9077c0.44965,-1.05964 1.00564,-1.96743 1.64675,-2.73538c-0.07526,-1.63332 -0.03719,-3.3011 0.13321,-5.04543c0.2496,-2.55519 0.40573,-5.43393 2.19099,-7.44234c0.94222,-0.26968 1.84741,-0.76928 2.82665,-0.80903c0.03981,-0.00162 0.07953,0.00096 0.11911,0.00744c-0.93439,-0.84658 -2.0326,-1.43358 -3.26936,-1.48614c-1.12925,-0.24663 -3.26433,-1.12955 -4.39637,-0.96016c-0.67203,0.10056 -0.96779,0.97915 -1.56014,1.31211c-1.24196,0.69809 -3.3151,1.47836 -5.02429,2.40012c0.44136,1.64258 0.84014,3.29976 1.21392,4.96477c0.37088,0.27308 0.61153,0.71278 0.61153,1.20869zM225.64709,185.13387c0.01723,0.00061 0.03439,0.00151 0.05147,0.00269c-0.00686,-0.05221 -0.01382,-0.1044 -0.02087,-0.15658c-0.01017,0.05131 -0.02037,0.1026 -0.0306,0.15389zM244.91303,169.01882c0.44635,0.94986 0.79404,1.95988 1.05794,3.01313c0.21882,-0.68979 0.44327,-1.37881 0.67331,-2.06732c-0.06185,-0.67559 -0.15275,-1.22813 -0.48674,-1.86393c-0.25074,0.25527 -0.79393,0.3559 -1.04053,0.64869c-0.06976,0.08283 -0.13768,0.17307 -0.20398,0.26943zM250.01912,171.00864c0.17604,-0.97952 0.33182,-1.96498 0.4669,-2.95704c-0.22389,0.55702 -0.42058,1.12546 -0.61535,1.70609c0.06791,0.40861 0.11629,0.82648 0.14845,1.25095zM246.43705,194.05128c-0.00511,0.01241 -0.01022,0.02482 -0.01534,0.03722c0.00591,-0.0078 0.01179,-0.01558 0.01765,-0.02333c-0.00077,-0.00463 -0.00154,-0.00926 -0.0023,-0.01389zM241.31917,169.66264c0.05282,-0.10331 0.10638,-0.20651 0.16073,-0.30961c-0.23721,-0.42084 -0.5022,-0.84029 -0.79351,-1.24259c0.27811,0.55877 0.50009,1.15236 0.63279,1.5522zM243.01255,172.84494c0.00659,0.00583 0.01317,0.01169 0.01974,0.01757c0.03154,-0.0042 0.0632,-0.00789 0.09497,-0.01107c-0.01962,-0.04013 -0.0393,-0.08022 -0.059,-0.12023c-0.01874,0.03781 -0.03731,0.07572 -0.05572,0.11373zM211.42999,185.92636c-0.07761,0.09817 -0.15143,0.16624 -0.21918,0.19477c0.03135,0.14935 0.06335,0.27985 0.10964,0.35288c0.02461,-0.12198 0.04935,-0.24388 0.07424,-0.3657c0.01173,-0.06067 0.02349,-0.12132 0.03529,-0.18196z" fill="#22a100" stroke-width="0.5"/></g></g></svg>