<svg version="1.1" xmlns="http://www.w3.org/2000/svg" xmlns:xlink="http://www.w3.org/1999/xlink" width="45.18023" height="56.05234" viewBox="0,0,45.18023,56.05234"><g transform="translate(-218,-152.80683)"><g data-paper-data="{&quot;isPaintingLayer&quot;:true}" fill="none" fill-rule="nonzero" stroke="none" stroke-width="none" stroke-linecap="butt" stroke-linejoin="none" stroke-miterlimit="none" stroke-dasharray="" stroke-dashoffset="none" font-family="none" font-weight="none" font-size="none" text-anchor="none" style="mix-blend-mode: normal"><g id="g6991" stroke-linejoin="miter" stroke-dashoffset="0"><path d="M256.34508,207.30308c-20.58243,-0.63896 -36.9824,-12.24561 -36.9824,-26.47008c0,-14.22447 16.39997,-25.83112 36.9824,-26.47008" id="path4727-5" fill="#4e9a06" stroke="#231f20" stroke-width="2.72535" stroke-miterlimit="4"/><path d="M256.34257,206.25155c-2.18184,-0.07379 -4.31372,-0.2798 -6.3819,-0.59669c-2.3047,-0.67892 -4.62718,-1.34908 -6.84387,-2.29038c-1.6882,-0.83459 -3.31049,-1.8015 -4.90795,-2.80844c-1.44841,-0.87323 -2.80269,-1.88077 -4.1445,-2.91751c-1.68529,-1.24473 -3.1208,-2.80213 -4.60802,-4.28083c-1.46085,-1.40496 -2.80697,-2.92283 -4.0627,-4.52622c-1.5306,-1.8325 -2.85568,-3.82608 -4.11723,-5.86228c-0.08031,-0.16101 -0.19829,-0.30921 -0.29993,-0.46353c-0.004,-0.0064 0.004,-0.0212 0,-0.0272c-0.027,-0.29028 -0.0418,-0.57967 -0.0545,-0.87252l2.12678,2.26311c3.01391,3.27491 6.28583,6.32845 9.62504,9.24332c1.95333,1.43526 4.02939,2.66542 6.13495,3.84456c1.34764,0.71089 2.6392,1.51474 3.9809,2.23585c0.97524,0.45082 2.03275,0.74315 3.05383,1.06339c1.97754,0.53163 3.93331,1.08856 5.94408,1.47239c1.43509,0.24548 2.89985,0.57326 4.36263,0.51806c0.07408,-0.0018 0.14806,-0.0041 0.22196,-0.0068" id="path6968" fill="#356804" stroke="none" stroke-width="1" stroke-miterlimit="10"/><path d="M256.36925,194.35161c-0.98935,0.03152 -1.97847,0.0475 -2.97298,0.01501c-2.20167,-0.27705 -4.37804,-0.70403 -6.54394,-1.19972c-2.2414,-0.58905 -4.51657,-1.11994 -6.7348,-1.79959c-1.79776,-0.65349 -3.57484,-1.37198 -5.20789,-2.39944c-3.56114,-1.94434 -7.03745,-4.02577 -10.52484,-6.10768c-0.74457,-0.49817 -1.5509,-0.92853 -2.34491,-1.33606c-0.61559,0.08186 -1.04411,-0.95392 -0.3272,-1.14519c0.11213,0.0187 0.21607,0.056 0.3272,0.0818h0.00007c0.59501,0.13816 1.19372,0.36633 1.79959,0.46353c1.53377,0.24267 3.02123,0.65756 4.47169,1.22699c1.93448,0.69937 3.80473,1.61117 5.72595,2.34491c2.53503,0.87728 5.0975,1.64138 7.68913,2.31765c1.27609,0.27023 2.57394,0.43572 3.87183,0.54532c2.32705,0.26243 4.65713,0.40809 6.9802,0.70893c1.24681,0.21971 2.52362,0.29225 3.78976,0.22511" id="path6966" fill="#356804" stroke="none" stroke-width="1" stroke-miterlimit="10"/><path d="M256.37899,181.65137c-2.04029,0.07082 -4.07555,0.18595 -6.11836,0.14537c-2.0515,-0.09941 -4.0857,-0.32547 -6.13494,-0.46353c-0.6742,-0.05832 -1.41994,-0.04959 -2.01772,0.32719c-0.567,0.39788 -1.00559,1.01895 -1.69051,1.22699c-1.06816,0.26468 -2.18535,0.15657 -3.27197,0.10907c-0.66751,0.00017 -1.30826,-0.1315 -1.96319,-0.2454c-1.76323,-0.41269 -3.51162,-0.96068 -5.28968,-1.30879c-2.14219,-0.45941 -4.28979,-0.66229 -6.46214,-0.89979c-0.40683,-0.1211 -0.95839,-0.0153 -1.39059,-0.0818c-0.25932,-0.0399 -0.46015,-0.13504 -0.62713,-0.38173c0.07828,-0.6123 0.95022,-0.34663 1.39059,-0.38173c0.97889,-0.09 1.93839,-0.27968 2.91751,-0.38173c1.92643,-0.23005 3.82137,-0.71218 5.61688,-1.47239c1.30604,-0.6274 2.60751,-1.25915 3.9809,-1.71778c1.02655,-0.4403 2.13295,-0.60204 3.21743,-0.818c1.40063,-0.33895 2.84946,-0.52128 4.28083,-0.65439c3.59854,-0.24778 7.1976,-0.26542 10.7975,-0.4908c0.91446,-0.07427 1.83179,-0.15312 2.74999,-0.23545" id="path6960" fill="#356804" stroke="none" stroke-width="1" stroke-miterlimit="10"/><path d="M255.81455,161.60144c-1.50021,-1.16616 -34.53211,15.97065 -34.21091,15.91453c0.0405,-0.59719 0.69104,-0.8804 1.06339,-1.25426c1.62464,-1.76252 3.31709,-3.45775 5.12608,-5.01702c1.56014,-1.33346 3.16567,-2.61882 4.82616,-3.8173c2.00144,-1.33086 4.10178,-2.50258 6.21674,-3.62643c1.33107,-0.7551 2.7418,-1.317 4.1445,-1.90865c1.41519,-0.54202 2.83323,-1.02856 4.28083,-1.47239c2.07312,-0.70832 4.22915,-1.13721 6.38034,-1.49965c0.75069,-0.08846 1.48311,-0.25893 2.23585,-0.29993l0.00009,-0.00018c0.16058,-0.00877 0.32459,-0.01532 0.48826,-0.01314M256.37169,170.54631c-1.28426,0.13426 -2.56854,0.29931 -3.84794,0.45298c-2.88571,0.36283 -5.76838,0.52871 -8.64346,0.98159c-1.172,0.21874 -2.38108,0.36091 -3.54463,0.62713c-1.92583,0.38998 -3.78253,1.0019 -5.61689,1.71778c-1.47481,0.76081 -2.93797,1.6183 -4.44442,2.31765c-1.6564,0.82687 -3.37323,1.49901 -5.12609,2.07225c-0.8487,0.29921 -1.73753,0.36656 -2.56304,0.73619c-0.41974,0.18837 -1.25979,0.43795 -1.44512,-0.1636c0.01,-0.33344 0.22349,-0.51282 0.46353,-0.65439c-0.20003,-0.57674 32.13027,-16.47535 34.38769,-14.69016" id="path6958" fill="#356804" stroke="none" stroke-width="1" stroke-miterlimit="10"/><path d="M256.37112,155.99047c-1.10433,0.01106 -2.20585,0.15553 -3.27477,0.44855c-2.72722,0.67011 -5.46897,1.26877 -8.1254,2.20858c-0.9069,0.2383 -1.70224,0.78423 -2.53577,1.19973c-2.04412,1.09662 -4.08461,2.24798 -6.08042,3.43556c-1.10508,0.6242 -2.10674,1.41978 -3.1629,2.12679c-1.47765,0.96016 -2.83396,2.11075 -4.1445,3.29923c-1.69881,1.4313 -3.04682,3.22494 -4.49896,4.90796c-1.10947,1.36894 -2.25232,2.71476 -3.35377,4.08996c0.0265,-0.14765 0.0516,-0.28941 0.0818,-0.43626c1.03027,-1.577 2.14021,-3.10183 3.29924,-4.58076c0.70677,-0.93955 1.47453,-1.80769 2.31764,-2.61758c1.95092,-1.87927 3.94084,-3.7231 6.08041,-5.37148c1.84476,-1.35642 3.79268,-2.57939 5.64415,-3.92637c1.36275,-0.86531 2.72942,-1.76202 4.17177,-2.48124c1.56261,-0.6651 3.1229,-1.27959 4.71709,-1.85412c2.82105,-0.57354 5.78129,-0.93203 8.83869,-1.0336" id="path6744" fill="#356804" stroke="none" stroke-width="1" stroke-miterlimit="10"/><path d="M236.0175,166.73582c-3.38396,1.92144 -4.95238,4.86429 -6.18016,3.41599c-1.22782,-1.44835 0.52087,-4.17853 3.90485,-6.09997c3.38301,-1.92087 7.12012,-2.30553 8.34793,-0.85717c1.22783,1.44833 -2.69059,1.62085 -6.07261,3.54118z" id="Shine-2" fill="#bfef90" stroke="none" stroke-width="1" stroke-miterlimit="10"/></g><path d="M261.68023,180.833c0,14.65 -2.61915,26.52617 -5.85003,26.52617c-3.23088,0 -5.85002,-11.87617 -5.85002,-26.52617c0,-14.65 2.61915,-26.52617 5.85002,-26.52617c3.23088,0 5.85003,11.87617 5.85003,26.52617z" id="path7000" fill="#ee1717" stroke="#231f20" stroke-width="3" stroke-linejoin="round" stroke-miterlimit="4" stroke-dashoffset="84.3197"/><path d="M256.63702,163.79219c0,1.2692 -0.47487,2.29809 -1.06066,2.29809c-0.58578,0 -1.06066,-1.02889 -1.06066,-2.29809c0,-1.26921 0.47488,-2.2981 1.06066,-2.2981c0.58579,0 1.06066,1.02889 1.06066,2.2981z" id="path7002" fill="#231f20" stroke="none" stroke-width="1" stroke-linejoin="miter" stroke-miterlimit="10" stroke-dashoffset="0"/><path d="M257.52091,171.74715c0,1.2692 -0.47487,2.29809 -1.06066,2.29809c-0.58578,0 -1.06066,-1.02889 -1.06066,-2.29809c0,-1.26921 0.47488,-2.2981 1.06066,-2.2981c0.58579,0 1.06066,1.02889 1.06066,2.2981z" id="path7002-7" fill="#231f20" stroke="none" stroke-width="1" stroke-linejoin="miter" stroke-miterlimit="10" stroke-dashoffset="0"/><path d="M254.69248,177.40401c0,1.2692 -0.47487,2.29809 -1.06066,2.29809c-0.58578,0 -1.06066,-1.02889 -1.06066,-2.29809c0,-1.26921 0.47488,-2.2981 1.06066,-2.2981c0.58579,0 1.06066,1.02889 1.06066,2.2981z" id="path7002-2" fill="#231f20" stroke="none" stroke-width="1" stroke-linejoin="miter" stroke-miterlimit="10" stroke-dashoffset="0"/><path d="M258.58157,181.46987c0,1.2692 -0.47487,2.29809 -1.06066,2.29809c-0.58578,0 -1.06066,-1.02889 -1.06066,-2.29809c0,-1.26921 0.47488,-2.2981 1.06066,-2.2981c0.58579,0 1.06066,1.02889 1.06066,2.2981z" id="path7002-8" fill="#231f20" stroke="none" stroke-width="1" stroke-linejoin="miter" stroke-miterlimit="10" stroke-dashoffset="0"/><path d="M256.99057,199.32432c0,1.2692 -0.47487,2.29809 -1.06066,2.29809c-0.58578,0 -1.06066,-1.02889 -1.06066,-2.29809c0,-1.26921 0.47488,-2.2981 1.06066,-2.2981c0.58579,0 1.06066,1.02889 1.06066,2.2981z" id="path7002-5" fill="#231f20" stroke="none" stroke-width="1" stroke-linejoin="miter" stroke-miterlimit="10" stroke-dashoffset="0"/><path d="M258.4048,192.07646c0,1.2692 -0.47487,2.29809 -1.06066,2.29809c-0.58578,0 -1.06066,-1.02889 -1.06066,-2.29809c0,-1.26921 0.47488,-2.2981 1.06066,-2.2981c0.58579,0 1.06066,1.02889 1.06066,2.2981z" id="path7002-0" fill="#231f20" stroke="none" stroke-width="1" stroke-linejoin="miter" stroke-miterlimit="10" stroke-dashoffset="0"/><path d="M255.22281,187.83383c0,1.2692 -0.47487,2.29809 -1.06066,2.29809c-0.58578,0 -1.06066,-1.02889 -1.06066,-2.29809c0,-1.26921 0.47488,-2.2981 1.06066,-2.2981c0.58579,0 1.06066,1.02889 1.06066,2.2981z" id="path7002-3" fill="#231f20" stroke="none" stroke-width="1" stroke-linejoin="miter" stroke-miterlimit="10" stroke-dashoffset="0"/><path d="M258.81075,206.62682c-1.49779,0.08147 -1.57926,-1.41632 -1.57926,-1.41632l1.15274,0.60086c-3.95266,-2.30023 -7.85499,-4.69447 -11.82354,-6.96479c-1.83481,-1.04966 -3.97772,-1.83993 -5.22258,-3.68643c-0.62536,-0.92759 -1.14419,-2.09468 -1.61089,-3.33317c-1.26429,-0.92484 -2.53185,-1.9019 -3.65943,-2.9212c-0.26174,0.43876 -0.74111,0.73265 -1.28913,0.73265c-0.80071,0 -1.45489,-0.62739 -1.49776,-1.41739l-0.09288,-1.48612c-0.09578,-0.10369 -0.1603,-0.30718 -0.20176,-0.57383c-1.12317,0.39949 -2.22581,0.90501 -3.21444,1.31752l0.00647,0.01725l-1.60528,0.60198c-0.17277,0.06943 -0.36145,0.10764 -0.55905,0.10764c-0.82843,0 -1.5,-0.67157 -1.5,-1.5c0,-0.5375 0.28271,-1.00897 0.70755,-1.27383l1.2397,-0.79981c0.16587,-0.60269 3.21591,-2.07478 3.78133,-2.43957c0.10328,-0.06663 0.20668,-0.13589 0.31003,-0.20766c0.00312,-1.19328 0.31888,-2.37244 1.08975,-3.14201c0.22346,-3.66238 0.72434,-7.66884 2.60314,-10.51117c2.4314,-3.67831 6.21276,-4.74627 9.43122,-1.43537c2.67054,4.45091 4.65953,11.1053 5.1914,16.85533c0.06653,-0.21884 0.13277,-0.43785 0.19882,-0.65698c0.10603,-1.10769 0.23261,-2.1541 0.4198,-3.08214c0.13418,-0.66526 0.35757,-5.14727 0.81996,-5.32623l0.16981,-0.84835c0.12601,-0.70098 0.73903,-1.23286 1.47628,-1.23286c0.16823,0 0.32999,0.02769 0.48097,0.07877c0.37439,-1.25704 0.91242,-3.13359 1.70044,-3.8233c-0.36948,-1.85842 -0.96523,-3.69833 -1.16605,-5.56192c-0.24838,-2.30501 0,-4.76948 0,-7.09412c0,0 0,-1.5 1.5,-1.5c1.5,0 1.5,1.5 1.5,1.5c0,2.32464 -0.24838,4.78911 0,7.09412c0.14141,1.31235 0.50515,2.61294 0.83035,3.91966c0.63841,0.12202 1.13317,0.6487 1.20714,1.30289l0.25439,1.9867l-0.00539,0.00069c0.50284,4.08265 0.98881,7.9121 0.98881,12.10302c0,0.66925 0.36987,3.32007 -0.10753,3.80928l-0.10117,1.2141c-0.05653,0.77686 -0.70471,1.38957 -1.496,1.38957c-0.56794,0 -1.06216,-0.31564 -1.31681,-0.78107l-0.80438,-1.40766l0.03568,-0.02039c-0.81835,-1.79462 -0.90222,-3.44233 -0.98849,-5.51572c-0.07335,-1.79882 -0.02763,-3.60687 0.00433,-5.41329c-0.01126,0.0334 -0.02255,0.06639 -0.03385,0.09894c-0.5672,1.63361 -1.09496,3.27925 -1.60832,4.92794c-0.19083,2.47197 -0.44974,4.94949 -1.17799,7.26727c-0.13153,0.41861 -0.26214,0.98511 -0.44169,1.49753c-0.26225,1.78764 -0.60835,3.54073 -1.16137,5.18375l0.06124,0.02722l-0.80492,1.81106c-0.14127,0.33809 -0.40276,0.61342 -0.73105,0.77259c3.24949,1.89919 6.46925,3.85303 9.72207,5.74599l0.33391,1.8291c0,0 0.08147,1.49779 -1.41632,1.57926zM247.52826,195.9333c-0.03002,0.00153 -0.06,0.00262 -0.08996,0.00329c0.21557,0.09782 0.39574,0.18437 0.51964,0.25524c0.01393,0.00797 0.02786,0.01594 0.04179,0.02391l-0.08738,-0.37864c-0.11827,0.05525 -0.24576,0.08913 -0.38409,0.09619zM238.56507,180.41788c0.52772,0.96687 0.92959,2.01374 1.32897,3.06172c1.46937,0.39115 2.97956,1.05428 4.5894,2.0503c1.07101,0.66263 2.14941,1.55867 3.07719,2.58033c0.01931,-0.43287 0.00928,-0.86665 -0.03658,-1.29912c-0.64174,-6.05114 -1.63595,-13.06506 -4.81984,-18.37154c1.14561,-0.77293 -2.17681,-0.8321 -2.7103,-0.38932c-1.46151,1.21304 -2.55651,3.47873 -3.01176,5.2971c-0.20545,0.82059 -0.36549,1.69658 -0.48963,2.60057c0.08689,-0.21724 0.22693,-0.37259 0.46401,-0.41383l0.29476,-0.78604c0.20418,-0.58578 0.7614,-1.0061 1.41679,-1.0061c0.82843,0 1.5,0.67157 1.5,1.5c0,0.19318 -0.03652,0.37782 -0.10302,0.54741l-0.29408,0.80484c0.44713,0.56019 -0.48107,1.36664 -0.69276,2.05711c-0.17985,0.58661 -0.34932,1.17587 -0.51315,1.76656zM237.16737,185.55873c-0.01395,0.04801 -0.02795,0.09602 -0.04201,0.144c0.22053,0.22734 0.44956,0.45243 0.68568,0.67524c-0.02967,-0.0741 -0.05948,-0.14736 -0.08944,-0.21972c-0.05925,-0.14311 -0.14678,-0.32417 -0.25302,-0.53262c-0.0083,-0.00213 -0.01658,-0.00425 -0.02486,-0.00635c-0.09127,-0.02323 -0.18341,-0.04336 -0.27636,-0.06054zM241.27549,187.10938c0.31914,0.92111 0.63616,1.88514 0.97364,2.83214c1.44798,1.04884 2.87091,2.03015 4.05483,2.94133c0.20105,-0.2486 0.33284,-0.55797 0.44127,-0.87401c-0.08449,-0.28524 -0.17176,-0.52218 -0.2654,-0.67076c-1.03939,-1.64923 -3.08714,-3.14466 -5.20434,-4.2287z" fill="#a87100" stroke="none" stroke-width="0.5" stroke-linejoin="miter" stroke-miterlimit="10" stroke-dashoffset="0"/></g></g></svg>